<?xml version="1.0" standalone="no"?><!DOCTYPE svg PUBLIC "-//W3C//DTD SVG 1.1//EN" "http://www.w3.org/Graphics/SVG/1.1/DTD/svg11.dtd"><svg t="1621322288660" class="icon" viewBox="0 0 1024 1024" version="1.1" xmlns="http://www.w3.org/2000/svg" p-id="845" xmlns:xlink="http://www.w3.org/1999/xlink" width="150" height="150"><defs><style type="text/css"></style></defs><path d="M494.933333 968.9088c251.357867 0 455.133867-203.776 455.133867-455.133867 0-108.509867-31.744-213.8112-101.376-286.378666-64.853333-67.584-136.055467 219.818667-200.9088 190.395733-57.275733-26.0096-31.300267-370.4832-112.7424-370.4832-81.476267 0-168.618667 381.883733-227.259733 409.429333-64.9216 30.481067-87.04-324.8128-171.281067-223.470933-62.7712 75.502933-96.699733 174.6944-96.699733 280.507733 0 251.357867 203.776 455.133867 455.133866 455.133867z" fill="#FF6B35" p-id="846"></path><path d="M494.933333 968.9088c57.275733 0 112.4352-10.274133 162.679467-30.3104 5.973333-2.389333 35.703467-62.6688-67.1744-137.8304-109.6704-80.042667-64.853333-241.4592-117.248-241.4592-52.4288 0-85.640533 77.789867-149.265067 164.010667-59.904 81.2032-75.434667 171.451733-67.140266 176.469333 70.109867 42.734933 150.698667 69.12 238.148266 69.12z" fill="#FFAF1D" p-id="847"></path></svg>